<?xml version="1.0" encoding="UTF-8" standalone="no"?>
<!-- SPDX-License-Identifier: CC0-1.0 -->
<!-- SPDX-FileCopyrightText: none -->
<svg
   width="64"
   height="64"
   viewBox="0 0 64 64"
   version="1.1"
   id="svg7"
   sodipodi:docname="kjar-icon-plain.svg"
   inkscape:version="1.4.4 (dcaf3e7d9e, 2026-05-05)"
   xmlns:inkscape="http://www.inkscape.org/namespaces/inkscape"
   xmlns:sodipodi="http://sodipodi.sourceforge.net/DTD/sodipodi-0.dtd"
   xmlns="http://www.w3.org/2000/svg"
   xmlns:svg="http://www.w3.org/2000/svg">
  <defs
     id="defs7" />
  <sodipodi:namedview
     id="namedview7"
     pagecolor="#ffffff"
     bordercolor="#000000"
     borderopacity="0.25"
     inkscape:showpageshadow="2"
     inkscape:pageopacity="0.0"
     inkscape:pagecheckerboard="0"
     inkscape:deskcolor="#d1d1d1"
     inkscape:zoom="13.609375"
     inkscape:cx="32"
     inkscape:cy="32"
     inkscape:window-width="1920"
     inkscape:window-height="1122"
     inkscape:window-x="0"
     inkscape:window-y="0"
     inkscape:window-maximized="1"
     inkscape:current-layer="svg7" />
  <g
     fill="none"
     stroke="#7fc7ea"
     stroke-width="3"
     stroke-linecap="round"
     id="g3"
     transform="translate(-1.1021814,1.9839265)">
    <path
       d="m 25,17 c 3,-3 -3,-5 0,-8"
       id="path1" />
    <path
       d="M 33,15 C 36,12 30,9 33,6"
       id="path2" />
    <path
       d="m 41,17 c 3,-3 -3,-5 0,-8"
       id="path3" />
  </g>
  <path
     d="m 43.089553,30.293915 h 3 a 8,8 0 0 1 0,15 h -4"
     fill="none"
     stroke="#2980b9"
     stroke-width="5"
     id="path4" />
  <path
     d="M14 26h32l-3 20a7 7 0 0 1-7 6h-12a7 7 0 0 1-7-6z"
     fill="#3daee9"
     id="path5" />
  <rect
     x="12.293915"
     y="24.367393"
     width="35.632607"
     height="4.632606"
     rx="2.4744866"
     fill="#2980b9"
     id="rect5"
     style="stroke-width:0.957635;fill:#2976b9;fill-opacity:1" />
  <path
     d="M19 29h4l2 23h-1a5 5 0 0 1-4-4z"
     fill="#5fbfec"
     id="path6" />
  <path
     d="M 9.6552625,54 H 54.050823 A 2.8953626,3 0 0 1 51.15546,58 H 12.550625 A 2.8953626,3 0 0 1 9.6552625,54 Z"
     fill="#2980b9"
     id="path7"
     style="stroke-width:0.982406" />
</svg>
